<?xml version="1.0" standalone="no"?>
<!DOCTYPE svg PUBLIC "-//W3C//DTD SVG 20010904//EN"
 "http://www.w3.org/TR/2001/REC-SVG-20010904/DTD/svg10.dtd">
<svg version="1.0" xmlns="http://www.w3.org/2000/svg"
 width="512.000000pt" height="512.000000pt" viewBox="0 0 512.000000 512.000000"
 preserveAspectRatio="xMidYMid meet">
<metadata>
Created by potrace 1.11, written by Peter Selinger 2001-2013
</metadata>
<g transform="translate(0.000000,512.000000) scale(0.100000,-0.100000)"
fill="#000000" stroke="none">
<path d="M2379 5116 c-2 -2 -35 -6 -74 -10 -38 -3 -97 -10 -130 -16 -33 -6
-76 -13 -95 -16 -70 -11 -305 -75 -399 -110 -121 -44 -372 -167 -471 -231 -97
-62 -212 -142 -225 -158 -5 -6 -17 -16 -27 -21 -44 -24 -256 -230 -347 -337
-299 -350 -503 -789 -576 -1242 -2 -11 -6 -36 -9 -55 -27 -160 -28 -525 -3
-700 67 -450 218 -822 481 -1180 71 -98 89 -118 191 -228 87 -93 167 -168 280
-261 308 -251 790 -463 1175 -517 199 -28 243 -31 445 -28 121 2 231 5 245 8
14 2 45 7 70 10 347 51 683 170 981 351 87 52 274 188 343 250 252 221 457
484 606 775 121 239 213 517 246 750 2 19 6 44 9 55 20 96 27 457 13 605 -21
205 -71 430 -136 605 -52 141 -72 187 -132 305 -212 414 -529 760 -930 1014
-246 155 -608 296 -875 341 -16 3 -39 7 -51 9 -12 2 -45 7 -74 11 -29 4 -62 9
-74 12 -24 5 -452 14 -457 9z m471 -281 c19 -3 71 -12 115 -20 116 -21 124
-22 220 -50 685 -199 1246 -705 1504 -1358 31 -78 95 -281 106 -334 17 -86 34
-187 42 -248 10 -87 11 -437 1 -525 -88 -762 -558 -1436 -1244 -1783 -246
-125 -506 -203 -774 -234 -85 -10 -448 -10 -525 0 -584 75 -1084 341 -1466
779 -294 337 -492 783 -546 1228 -16 127 -6 588 12 620 2 3 6 30 10 60 4 30 9
58 11 61 2 3 6 20 9 37 9 52 72 255 106 339 111 280 285 546 501 762 276 277
588 467 953 580 146 45 207 58 395 86 87 13 501 13 570 0z"/>
<path d="M1030 3694 c-47 -20 -45 -43 28 -284 11 -36 56 -186 100 -335 44
-148 104 -349 132 -445 29 -96 66 -220 82 -275 16 -55 43 -145 60 -200 16 -55
33 -113 38 -130 5 -16 26 -91 48 -165 22 -74 52 -175 67 -225 48 -161 57 -168
247 -170 168 -2 180 0 217 34 35 33 23 -1 266 766 114 358 215 672 224 699
l18 49 18 -49 c25 -73 38 -112 100 -309 31 -99 76 -241 100 -315 24 -74 71
-223 105 -330 34 -107 79 -249 100 -315 21 -66 41 -130 45 -141 9 -33 38 -62
76 -77 29 -12 232 -17 331 -8 40 3 77 51 102 134 36 121 97 328 106 362 5 17
26 91 48 165 41 137 180 613 187 640 7 22 129 442 160 545 99 334 99 337 76
367 -18 21 -25 22 -197 22 -99 0 -191 -3 -205 -7 -53 -14 -83 -62 -104 -169
-2 -9 -13 -50 -24 -90 -11 -40 -63 -244 -116 -453 -124 -489 -139 -544 -165
-640 -12 -44 -22 -86 -23 -92 -2 -48 -18 -3 -219 637 -22 69 -57 179 -78 245
-42 132 -122 386 -142 453 -31 103 -69 118 -281 117 -139 -1 -157 -3 -189 -23
-20 -12 -42 -38 -51 -59 -9 -21 -66 -193 -127 -383 -165 -510 -279 -858 -300
-915 l-18 -50 -11 28 c-6 15 -13 38 -15 50 -2 12 -7 29 -10 37 -3 8 -7 26 -10
40 -5 28 -239 974 -262 1060 -39 144 -45 159 -75 184 -36 30 -16 28 -248 30
-119 1 -193 -3 -211 -10z"/>
</g>
</svg>
